<svg width="79" height="79" viewBox="0 0 79 79" fill="none" xmlns="http://www.w3.org/2000/svg">
<g filter="url(#filter0_d_19_374)">
<path fill-rule="evenodd" clip-rule="evenodd" d="M39.7977 66.2406C55.7124 66.2406 68.6138 53.3392 68.6138 37.4245C68.6138 21.5098 55.7124 8.6084 39.7977 8.6084C23.883 8.6084 10.9816 21.5098 10.9816 37.4245C10.9816 53.3392 23.883 66.2406 39.7977 66.2406Z" fill="white"/>
</g>
<path d="M50.4906 32.787C49.6542 33.09 48.7631 33.2909 47.8339 33.3884C48.7898 32.917 49.5193 32.1762 49.8623 31.2833C48.9711 31.7222 47.9871 32.0322 46.9385 32.2052C46.0923 31.461 44.8862 31 43.5705 31C41.0179 31 38.9628 32.7115 38.9628 34.8096C38.9628 35.1115 38.9937 35.4018 39.0696 35.6782C35.2364 35.5237 31.8445 34.0061 29.5659 31.6944C29.1681 32.2645 28.9348 32.917 28.9348 33.6195C28.9348 34.9385 29.7571 36.1078 30.9828 36.7847C30.242 36.7731 29.5153 36.5955 28.8996 36.3156C28.8996 36.3272 28.8996 36.3423 28.8996 36.3574C28.8996 38.2083 30.4979 39.7456 32.5937 40.0997C32.2184 40.1845 31.8093 40.2251 31.3848 40.2251C31.0896 40.2251 30.7916 40.2112 30.5119 40.1601C31.1093 41.6684 32.8046 42.7773 34.8203 42.8133C33.2516 43.8269 31.2597 44.4377 29.1034 44.4377C28.7253 44.4377 28.3627 44.4238 28 44.3854C30.0424 45.4734 32.463 46.0946 35.0733 46.0946C43.5579 46.0946 48.1966 40.289 48.1966 35.2567C48.1966 35.0883 48.1895 34.9258 48.1797 34.7644C49.0948 34.2279 49.8637 33.558 50.4906 32.787Z" fill="#080809"/>
<defs>
<filter id="filter0_d_19_374" x="0.981628" y="0.608398" width="77.6322" height="77.6323" filterUnits="userSpaceOnUse" color-interpolation-filters="sRGB">
<feFlood flood-opacity="0" result="BackgroundImageFix"/>
<feColorMatrix in="SourceAlpha" type="matrix" values="0 0 0 0 0 0 0 0 0 0 0 0 0 0 0 0 0 0 127 0" result="hardAlpha"/>
<feOffset dy="2"/>
<feGaussianBlur stdDeviation="5"/>
<feColorMatrix type="matrix" values="0 0 0 0 0 0 0 0 0 0 0 0 0 0 0 0 0 0 0.1 0"/>
<feBlend mode="normal" in2="BackgroundImageFix" result="effect1_dropShadow_19_374"/>
<feBlend mode="normal" in="SourceGraphic" in2="effect1_dropShadow_19_374" result="shape"/>
</filter>
</defs>
</svg>
